# xmcd
#
# Track frame offsets: 
#        150
#        22460
#        45246
#        66341
#        89983
#        115435
#        122032
#        148699
#        172532
#        185882
#        210852
#        215579
#        235358
#        252494
#
# Disc length: 3599 seconds
#
# Revision: 3
# Processed by: cddbd v1.5.2PL0 Copyright (c) Steve Scherf et al.
# Submitted via: ExactAudioCopy v0.95a5
#
DISCID=d90e0d0e
DTITLE=GANDALF - IN THE GARDEN OF MIRACLES
DYEAR=2010
DGENRE=New Age
TTITLE0=Echoes from ancient dreams (Part1)
TTITLE1=Colours of the earth
TTITLE2=The magic of spring
TTITLE3=Along the milky way
TTITLE4=A seagull¡¯s tale
TTITLE5=So close - so far
TTITLE6=Majestic mountain view
TTITLE7=Garden of miracles
TTITLE8=The wheel of life
TTITLE9=Echoes from ancient dreams (Part 2)
TTITLE10=Garden of miracles (reprise)
TTITLE11=Shine on full moon
TTITLE12=Secrets of the heart
TTITLE13=Floating down the silent stream
EXTD=YEAR: 2010
EXTT0=
EXTT1=
EXTT2=
EXTT3=
EXTT4=
EXTT5=
EXTT6=
EXTT7=
EXTT8=
EXTT9=
EXTT10=
EXTT11=
EXTT12=
EXTT13=
PLAYORDER=
